<?xml version="1.0" standalone="no"?>
<!DOCTYPE svg PUBLIC "-//W3C//DTD SVG 20010904//EN"
 "http://www.w3.org/TR/2001/REC-SVG-20010904/DTD/svg10.dtd">
<svg version="1.0" xmlns="http://www.w3.org/2000/svg"
 width="512.000000pt" height="512.000000pt" viewBox="0 0 512.000000 512.000000"
 preserveAspectRatio="xMidYMid meet">
<metadata>
Created by potrace 1.11, written by Peter Selinger 2001-2013
</metadata>
<g transform="translate(0.000000,512.000000) scale(0.100000,-0.100000)"
fill="#000000" stroke="none">
<path d="M0 2560 l0 -2560 2560 0 2560 0 0 2560 0 2560 -2560 0 -2560 0 0
-2560z m1828 2453 c56 -3 102 -9 102 -13 0 -4 25 -11 55 -15 30 -3 57 -11 60
-16 4 -5 22 -9 41 -9 19 0 34 -4 34 -9 0 -5 16 -15 35 -21 19 -6 35 -16 35
-21 0 -5 9 -9 20 -9 11 0 20 -4 20 -9 0 -5 10 -13 22 -17 12 -3 27 -12 34 -18
6 -6 22 -18 34 -26 26 -17 50 -40 98 -93 18 -21 37 -37 42 -37 6 0 10 -4 10
-9 0 -5 15 -34 33 -64 31 -50 34 -62 32 -124 -2 -37 -3 -222 -4 -410 l-1 -343
-63 0 c-195 0 -518 -72 -767 -170 -366 -145 -700 -366 -1037 -684 l-73 -69 0
342 c0 218 -4 340 -10 336 -6 -4 -11 93 -14 262 -7 366 -32 855 -55 1047 -5
44 -7 85 -4 92 3 8 45 14 131 19 70 3 152 11 182 17 30 6 91 15 135 19 194 19
271 30 287 39 10 6 59 11 110 11 51 1 122 5 158 9 63 8 99 7 318 -7z m2009
-14 c17 -5 78 -14 135 -19 136 -13 242 -26 303 -38 28 -5 114 -13 192 -17 92
-5 143 -11 146 -19 3 -6 0 -52 -5 -101 -25 -247 -48 -692 -54 -1057 -3 -176
-8 -288 -14 -288 -6 0 -10 -119 -10 -316 l0 -317 -73 69 c-395 374 -794 617
-1234 753 -183 56 -435 101 -570 101 l-63 0 -2 413 c-3 412 -3 412 20 449 12
21 22 42 22 47 0 5 9 13 20 16 11 3 20 11 20 16 0 22 127 149 150 149 6 0 13
6 16 14 3 8 16 17 30 20 13 4 24 11 24 16 0 6 9 10 20 10 11 0 20 4 20 8 0 11
100 52 128 52 12 0 22 4 22 9 0 5 25 13 55 16 30 4 55 11 55 16 0 4 37 10 83
12 134 7 529 -3 564 -14z m-3391 -246 c10 -13 13 -60 14 -170 0 -89 4 -153 9
-153 6 0 12 -84 15 -197 3 -109 10 -317 15 -463 6 -146 13 -436 16 -645 l6
-380 -50 -53 -49 -54 -5 659 c-4 450 -11 742 -22 923 -9 146 -19 320 -22 388
-2 67 -9 122 -14 122 -14 0 -11 28 4 33 28 12 70 6 83 -10z m4311 2 c10 -11
12 -19 5 -28 -6 -7 -12 -70 -15 -142 -3 -71 -13 -247 -22 -390 -11 -174 -18
-474 -22 -908 l-5 -649 -49 54 -49 53 5 365 c4 201 11 484 16 630 5 146 12
352 15 458 3 112 9 192 14 192 6 0 10 66 10 165 0 136 3 170 16 190 19 29 57
33 81 10z m-4443 -172 c3 -38 9 -146 12 -240 3 -95 10 -173 15 -173 8 0 19
-530 19 -945 1 -437 -11 -1095 -20 -1095 -5 0 -11 -95 -13 -212 -4 -219 -22
-571 -32 -645 -8 -58 -27 -362 -32 -521 -2 -73 -8 -132 -14 -132 -5 0 -9 -51
-9 -119 0 -130 0 -131 63 -131 38 0 230 28 272 40 17 5 56 12 88 15 31 4 57
11 57 16 0 5 24 9 54 9 33 0 56 5 58 12 2 6 29 15 59 19 30 4 83 15 119 23
154 36 209 48 265 58 33 6 69 14 80 18 11 5 49 11 84 14 36 3 67 10 71 15 3 5
41 11 85 14 44 2 114 10 155 17 95 15 424 10 442 -8 7 -7 34 -12 60 -12 26 0
48 -4 48 -10 0 -5 12 -12 28 -16 34 -7 93 -33 108 -48 7 -6 27 -22 45 -36 18
-14 41 -33 51 -43 23 -21 33 -21 56 0 10 10 32 29 50 43 18 14 43 33 54 42 12
10 29 18 40 18 10 0 18 5 18 10 0 6 11 10 24 10 14 0 31 7 40 15 9 9 33 15 63
15 27 0 55 6 61 12 18 18 359 24 433 8 30 -7 95 -14 144 -17 50 -3 92 -9 95
-13 3 -5 39 -13 80 -19 154 -22 196 -29 220 -39 14 -5 76 -20 138 -33 61 -13
112 -27 112 -31 0 -4 24 -8 53 -8 28 -1 63 -7 77 -15 14 -8 44 -14 68 -15 23
0 42 -4 42 -9 0 -4 30 -13 68 -19 37 -6 110 -18 162 -27 144 -23 196 -28 225
-21 l26 7 -5 127 c-3 70 -10 190 -15 267 -11 141 -19 264 -40 625 -6 107 -16
238 -21 290 -6 52 -10 177 -10 277 0 111 -4 184 -10 188 -13 8 -14 1995 -1
1995 5 0 12 78 15 173 3 94 10 206 14 247 l7 75 53 3 53 3 -6 -113 c-3 -62 -8
-338 -11 -613 -3 -318 -8 -494 -14 -485 -6 10 -10 -110 -10 -328 0 -222 3
-341 10 -337 6 4 11 -190 14 -552 6 -712 28 -1412 55 -1761 11 -137 8 -152
-30 -152 -16 0 -29 -4 -29 -10 0 -13 -267 -13 -275 0 -3 5 -41 10 -83 10 -48
1 -86 6 -102 15 -14 8 -43 15 -65 15 -22 0 -51 7 -65 15 -14 8 -36 15 -50 15
-14 0 -43 7 -65 15 -22 8 -53 14 -68 15 -16 0 -35 7 -43 15 -9 9 -34 15 -59
15 -24 0 -45 5 -47 10 -2 6 -27 13 -56 17 -28 3 -52 9 -52 13 0 5 -21 10 -47
13 -27 3 -84 15 -128 27 -44 12 -102 25 -130 29 -27 3 -56 10 -63 15 -7 4 -45
12 -85 16 -40 5 -99 14 -132 20 -81 15 -367 10 -373 -7 -2 -8 -20 -13 -43 -13
-38 0 -190 -63 -197 -81 -2 -5 -10 -9 -18 -9 -8 0 -14 -3 -14 -7 0 -5 -14 -17
-30 -28 -16 -11 -30 -26 -30 -32 0 -7 -9 -13 -20 -13 -11 0 -20 6 -20 13 0 7
-10 19 -21 27 -12 8 -27 21 -35 28 -7 6 -17 12 -22 12 -6 0 -12 4 -14 8 -5 15
-153 82 -179 82 -13 0 -42 7 -64 15 -57 20 -334 20 -401 0 -27 -8 -72 -15
-100 -15 -28 0 -68 -7 -87 -15 -20 -8 -49 -15 -65 -15 -16 0 -45 -6 -63 -14
-19 -8 -52 -16 -74 -18 -22 -3 -50 -10 -62 -16 -12 -7 -40 -12 -62 -12 -23 0
-41 -4 -41 -9 0 -5 -25 -12 -55 -16 -30 -3 -55 -11 -55 -16 0 -5 -18 -9 -41
-9 -23 0 -47 -7 -55 -15 -9 -8 -30 -15 -47 -15 -18 -1 -50 -7 -72 -15 -22 -8
-51 -15 -65 -15 -14 0 -36 -7 -50 -15 -14 -8 -42 -14 -63 -15 -21 0 -54 -7
-74 -15 -19 -8 -64 -15 -99 -15 -34 0 -66 -4 -69 -10 -8 -13 -265 -13 -265 0
0 6 -17 10 -39 10 -48 0 -50 5 -40 135 26 333 49 1056 55 1705 3 334 8 510 14
500 6 -10 10 145 10 438 0 283 -4 452 -10 452 -6 0 -11 173 -14 453 -3 248 -8
498 -11 555 l-6 102 54 0 55 0 6 -67z m2410 -1208 c330 -68 578 -320 647 -655
25 -125 22 -231 -11 -358 -70 -276 -266 -485 -548 -586 -84 -30 -93 -31 -252
-31 -159 0 -168 1 -252 31 -175 63 -320 167 -414 300 -124 173 -181 385 -155
575 7 46 13 93 14 104 2 17 -9 22 -91 36 -67 12 -95 13 -97 5 -25 -76 -35
-282 -20 -371 36 -207 104 -360 231 -516 36 -43 63 -79 61 -79 -14 0 -164 68
-251 113 -258 136 -502 315 -723 531 -46 44 -83 85 -83 91 0 26 271 269 429
385 178 130 416 267 576 330 l80 32 63 -71 64 -71 56 44 c192 149 444 209 676
161z m636 -105 c154 -63 382 -196 551 -320 158 -116 429 -359 429 -385 0 -6
-37 -47 -82 -91 -222 -216 -466 -395 -724 -531 -87 -45 -237 -113 -251 -113
-2 0 25 36 61 79 140 173 216 356 235 570 23 256 -62 529 -228 734 -39 48 -70
87 -68 87 3 0 37 -14 77 -30z m1367 -1210 c9 -212 18 -469 20 -572 2 -111 8
-188 13 -188 6 0 10 -77 10 -194 0 -113 4 -196 9 -198 8 -2 16 -286 12 -399
-1 -26 -57 -31 -171 -13 -126 19 -250 42 -305 56 -22 6 -65 13 -95 15 -30 3
-58 10 -62 16 -4 6 -36 13 -72 15 -36 2 -66 8 -66 13 0 5 -20 9 -44 9 -24 0
-63 7 -86 15 -23 8 -58 15 -77 15 -19 0 -62 6 -96 14 -111 26 -209 38 -362 47
-248 13 -396 1 -520 -42 -52 -19 -75 -22 -75 -10 0 6 12 14 27 17 15 4 34 13
41 21 7 7 22 13 33 13 11 0 27 7 35 15 9 9 34 15 60 15 24 0 44 4 44 9 0 9
218 26 335 25 160 -1 425 -17 425 -26 0 -4 25 -8 55 -8 30 0 87 -7 127 -15 40
-8 105 -19 143 -25 39 -7 104 -18 145 -26 41 -8 108 -19 149 -24 40 -5 78 -13
84 -19 6 -6 48 -11 94 -11 49 0 83 -4 83 -10 0 -16 60 -12 77 6 13 13 14 25 4
87 -16 105 -32 267 -38 387 -3 58 -9 109 -14 115 -5 5 -9 73 -9 152 0 89 -4
143 -10 143 -6 0 -10 59 -10 156 0 85 -4 163 -9 172 -5 10 -11 141 -12 293
l-3 275 44 53 c45 53 45 53 48 25 1 -16 10 -202 19 -414z m-4260 380 l40 -50
-5 -272 c-2 -150 -8 -281 -13 -290 -5 -9 -9 -91 -9 -182 0 -99 -4 -167 -10
-171 -6 -4 -10 -61 -10 -139 0 -72 -4 -136 -9 -141 -5 -6 -11 -57 -14 -115 -5
-125 -23 -301 -38 -387 -9 -53 -9 -65 4 -78 17 -17 57 -21 57 -5 0 6 38 10 93
10 53 0 98 5 104 11 6 6 44 14 84 19 41 5 108 15 149 23 41 9 107 20 145 27
39 6 103 17 143 25 40 8 97 15 127 15 30 0 55 4 55 8 0 9 272 26 420 26 127 0
340 -16 340 -26 0 -4 20 -8 44 -8 26 0 51 -6 60 -15 8 -8 26 -15 39 -15 14 0
30 -6 36 -14 7 -8 24 -17 39 -21 23 -6 24 -8 9 -16 -11 -7 -24 -6 -39 3 -38
21 -127 39 -246 49 -169 15 -542 -12 -677 -50 -22 -6 -56 -11 -76 -11 -20 0
-56 -7 -79 -15 -23 -8 -62 -15 -86 -15 -24 0 -44 -4 -44 -10 0 -5 -24 -10 -52
-10 -29 0 -66 -7 -82 -15 -15 -8 -46 -15 -68 -15 -22 0 -49 -5 -61 -12 -12 -7
-44 -15 -72 -18 -27 -4 -77 -12 -110 -18 -186 -34 -295 -46 -314 -34 -10 8
-13 50 -12 208 1 116 6 200 11 202 6 2 10 85 10 203 0 112 4 199 9 199 5 0 11
87 14 193 3 105 10 293 16 417 5 124 13 305 17 403 3 97 10 177 14 177 3 0 25
-22 47 -50z m343 -341 c255 -225 574 -423 895 -552 207 -84 505 -153 703 -164
69 -4 115 -11 117 -17 8 -28 15 -766 7 -766 -13 0 -102 88 -102 100 0 6 -6 10
-14 10 -7 0 -19 7 -26 15 -7 8 -21 15 -31 15 -11 0 -19 3 -19 8 0 14 -115 64
-190 83 -192 47 -513 58 -780 26 -206 -25 -350 -45 -400 -56 -25 -6 -70 -10
-102 -11 -31 0 -58 -4 -60 -9 -1 -5 -72 -12 -155 -16 l-153 -8 0 64 c0 35 5
96 11 134 14 98 30 331 36 520 2 88 9 164 14 169 5 6 9 116 9 254 0 159 3 241
10 237 6 -4 10 25 10 81 l0 87 73 -69 c40 -38 106 -99 147 -135z m3730 81 c6
0 10 -100 10 -255 0 -152 4 -255 9 -255 6 0 12 -75 14 -172 5 -188 20 -405 36
-538 6 -46 11 -111 11 -144 l0 -59 -152 8 c-84 4 -154 11 -156 16 -2 5 -29 9
-60 9 -31 1 -77 5 -102 11 -55 12 -219 35 -400 56 -187 22 -527 22 -645 1
-133 -24 -275 -66 -275 -80 0 -5 -11 -8 -25 -8 -16 0 -25 -6 -25 -15 0 -8 -8
-15 -19 -15 -10 0 -24 -7 -31 -15 -7 -8 -19 -15 -26 -15 -8 0 -14 -4 -14 -9 0
-19 -100 -113 -105 -99 -2 7 -1 184 3 393 l7 380 115 7 c403 25 883 200 1269
463 171 117 412 315 516 425 l30 31 3 -60 c2 -34 7 -61 12 -61z m-2140 -1546
c0 -2 -9 -4 -21 -4 -11 0 -18 4 -14 10 5 8 35 3 35 -6z m355 6 c3 -6 -4 -10
-17 -10 -18 0 -20 2 -8 10 19 12 18 12 25 0z m-325 -30 c0 -5 -4 -10 -10 -10
-5 0 -10 5 -10 10 0 6 5 10 10 10 6 0 10 -4 10 -10z m280 0 c0 -5 -4 -10 -10
-10 -5 0 -10 5 -10 10 0 6 5 10 10 10 6 0 10 -4 10 -10z m-384 -124 c10 -10
14 -39 14 -95 0 -74 -2 -81 -20 -81 -19 0 -20 7 -20 95 0 52 3 95 6 95 3 0 12
-6 20 -14z m494 -77 c0 -65 -4 -94 -14 -105 -8 -8 -17 -14 -20 -14 -12 0 -6
181 7 195 23 27 27 15 27 -76z"/>
<path d="M2444 3106 c-75 -15 -175 -63 -229 -109 l-39 -34 89 -102 c50 -56
110 -125 134 -153 l45 -50 -30 6 c-16 3 -98 18 -183 31 -85 14 -165 28 -177
31 -20 5 -24 0 -34 -38 -7 -23 -12 -81 -12 -128 1 -272 201 -503 470 -542 338
-49 634 207 634 547 -1 162 -58 292 -177 404 -134 124 -308 173 -491 137z"/>
</g>
</svg>
