<svg width="14" height="18" viewBox="0 0 14 18" fill="none" xmlns="http://www.w3.org/2000/svg">
<path d="M12.0895 2.36966H10.5819C10.2287 2.13886 9.84408 1.97055 9.48862 1.84887C9.32266 1.41297 9.05741 1.02065 8.71599 0.71337C8.21493 0.262344 7.57495 0.013916 6.91406 0.013916C6.25314 0.013916 5.61322 0.262314 5.11212 0.7134C4.77073 1.02071 4.50546 1.41303 4.33952 1.8489C3.98404 1.97058 3.59946 2.13889 3.24623 2.36969H1.73861C0.787677 2.36969 0.0140076 3.14337 0.0140076 4.0943V16.2596C0.0140076 17.2106 0.787677 17.9843 1.73861 17.9843H12.0895C13.0405 17.9843 13.8141 17.2106 13.8141 16.2596V4.09427C13.8141 3.14334 13.0404 2.36966 12.0895 2.36966ZM5.44479 2.59045C5.45936 2.51478 5.47887 2.44112 5.50255 2.36969C5.71217 1.73683 6.26488 1.28468 6.91406 1.28468C7.56323 1.28468 8.11594 1.73683 8.32557 2.36969C8.34924 2.44115 8.36876 2.51478 8.38332 2.59045C8.41646 2.76279 8.54861 2.89829 8.71834 2.94299C9.33441 3.10534 9.8366 3.34831 10.157 3.64043C10.2075 3.6865 10.2537 3.73375 10.2949 3.78213C10.4981 4.0208 10.3305 4.38776 10.017 4.38776H3.8111C3.49763 4.38776 3.33003 4.02083 3.53325 3.78213C3.57445 3.73372 3.62061 3.6865 3.67112 3.64043C3.99151 3.34828 4.49374 3.10531 5.10978 2.94299C5.27951 2.89826 5.41163 2.76276 5.44479 2.59045ZM12.5434 16.2596C12.5434 16.5103 12.3402 16.7135 12.0895 16.7135H1.73864C1.48799 16.7135 1.2848 16.5103 1.2848 16.2596V4.09427C1.2848 3.84362 1.48799 3.64043 1.73864 3.64043H2.21844C2.2034 3.7034 2.19192 3.76739 2.18442 3.83229C2.14989 4.13123 2.1986 4.43421 2.32532 4.70848C2.45174 4.98218 2.65027 5.21518 2.89941 5.38233C3.16875 5.56301 3.48401 5.65852 3.8111 5.65852H10.017C10.3441 5.65852 10.6594 5.56301 10.9287 5.3823C11.1779 5.21515 11.3764 4.98212 11.5028 4.70845C11.6295 4.43418 11.6782 4.1312 11.6437 3.83226C11.6362 3.76739 11.6247 3.7034 11.6097 3.64043H12.0895C12.3402 3.64043 12.5433 3.84362 12.5433 4.09427V16.2596H12.5434Z" fill="#555555"/>
<path d="M12.0904 18H1.73944C0.780314 18 0 17.2197 0 16.2605V4.09522C0 3.13609 0.780314 2.35578 1.73944 2.35578H3.24264C3.55389 2.15291 3.91931 1.97876 4.32895 1.83804C4.49673 1.40048 4.76429 1.00819 5.10304 0.703281C5.60686 0.249763 6.25031 0 6.91488 0C7.57945 0 8.22293 0.249763 8.72673 0.703281C9.06545 1.00816 9.33301 1.40042 9.50081 1.83804C9.91054 1.97882 10.276 2.15297 10.5871 2.35578H12.0904C13.0495 2.35578 13.8298 3.13609 13.8298 4.09522V16.2606C13.8298 17.2197 13.0495 18 12.0904 18ZM1.73944 2.38544C0.796658 2.38544 0.029663 3.15244 0.029663 4.09522V16.2606C0.029663 17.2033 0.796658 17.9704 1.73944 17.9704H12.0904C13.0331 17.9704 13.8001 17.2034 13.8001 16.2606V4.09519C13.8001 3.15241 13.0331 2.38541 12.0904 2.38541H10.5783L10.5746 2.38298C10.2631 2.1794 9.89637 2.00475 9.48461 1.86382L9.47803 1.86156L9.47557 1.85507C9.3096 1.41923 9.04379 1.02857 8.70685 0.72532C8.20854 0.276726 7.57212 0.029663 6.91488 0.029663C6.25764 0.029663 5.62122 0.276726 5.12288 0.72532C4.78594 1.02862 4.52013 1.41929 4.3542 1.85507L4.35173 1.86156L4.34515 1.86382C3.93352 2.00469 3.56679 2.17937 3.25515 2.38298L3.25145 2.38541H1.73944V2.38544ZM12.0904 16.7293H1.73947C1.48104 16.7293 1.27079 16.519 1.27079 16.2606V4.09519C1.27079 3.83676 1.48104 3.62651 1.73947 3.62651H2.23807L2.23371 3.64479C2.21861 3.70803 2.20725 3.77201 2.19998 3.8349C2.16578 4.13114 2.21404 4.43136 2.33964 4.70313C2.4649 4.97437 2.66163 5.20527 2.90854 5.37091C3.17542 5.54995 3.4878 5.64458 3.81199 5.64458H10.0179C10.3421 5.64458 10.6545 5.54995 10.9213 5.37088C11.1683 5.20524 11.365 4.97431 11.4903 4.7031C11.6158 4.43133 11.6641 4.13111 11.6299 3.83484C11.6226 3.77201 11.6113 3.70806 11.5962 3.64476L11.5918 3.62648H12.0904C12.3488 3.62648 12.5591 3.83673 12.5591 4.09516V16.2605C12.559 16.519 12.3488 16.7293 12.0904 16.7293ZM1.73947 3.65618C1.49739 3.65618 1.30045 3.85311 1.30045 4.09519V16.2606C1.30045 16.5026 1.49739 16.6996 1.73947 16.6996H12.0904C12.3324 16.6996 12.5294 16.5026 12.5294 16.2606V4.09519C12.5294 3.85311 12.3324 3.65618 12.0904 3.65618H11.6292C11.6425 3.71464 11.6526 3.77352 11.6594 3.83145C11.6942 4.13316 11.645 4.43889 11.5172 4.71556C11.3896 4.99172 11.1893 5.22683 10.9378 5.39553C10.6661 5.57787 10.348 5.67424 10.0179 5.67424H3.81196C3.4819 5.67424 3.16376 5.57787 2.89199 5.39553C2.64054 5.22683 2.44022 4.99172 2.31267 4.71556C2.18483 4.43883 2.13567 4.13313 2.17053 3.83148C2.17723 3.77346 2.18735 3.71458 2.20061 3.65615H1.73947V3.65618ZM10.0179 4.40351H3.81193C3.66166 4.40351 3.52921 4.31891 3.4663 4.18269C3.40297 4.04559 3.42459 3.88876 3.52277 3.77343C3.56356 3.72556 3.61037 3.67741 3.66195 3.6304C3.98498 3.33587 4.4846 3.09353 5.10684 2.92958C5.27233 2.88595 5.39961 2.75211 5.43108 2.58857C5.44538 2.51436 5.46499 2.43946 5.48931 2.36595C5.70629 1.7109 6.2792 1.27079 6.91491 1.27079C7.55062 1.27079 8.1235 1.7109 8.34051 2.36595C8.36487 2.43952 8.38447 2.51445 8.39877 2.58857C8.43024 2.75214 8.5575 2.88598 8.72299 2.92961C9.34529 3.09359 9.8449 3.33593 10.1679 3.63043C10.2194 3.67738 10.2662 3.7255 10.307 3.77346C10.4053 3.88879 10.4269 4.04559 10.3636 4.18269C10.3006 4.31888 10.1681 4.40351 10.0179 4.40351ZM6.91488 1.30043C6.29199 1.30043 5.73041 1.73238 5.51746 2.37527C5.49352 2.44756 5.47424 2.52121 5.46021 2.59418C5.42657 2.76884 5.29086 2.91175 5.1144 2.95826C4.49679 3.121 4.00145 3.361 3.68195 3.65232C3.63128 3.6985 3.58533 3.74573 3.54538 3.79266C3.45476 3.89906 3.43479 4.04375 3.49323 4.17024C3.55125 4.2958 3.67337 4.37381 3.81196 4.37381H10.0179C10.1565 4.37381 10.2786 4.2958 10.3366 4.17021C10.3951 4.04372 10.3751 3.89903 10.2844 3.79263C10.2444 3.74561 10.1985 3.69839 10.1479 3.65229C9.82844 3.361 9.3331 3.121 8.71545 2.95823C8.53899 2.91175 8.40325 2.76884 8.36964 2.59415C8.35561 2.52127 8.33636 2.44764 8.31236 2.37527C8.09935 1.73235 7.53777 1.30043 6.91488 1.30043Z" fill="#555555"/>
<path d="M6.91417 3.24027C7.26838 3.24027 7.55554 2.95313 7.55554 2.59889C7.55554 2.51812 7.54045 2.44091 7.51321 2.36972C7.42093 2.1287 7.18757 1.95752 6.91414 1.95752C6.64071 1.95752 6.40738 2.1287 6.31513 2.36972C6.2879 2.44088 6.2728 2.51812 6.2728 2.59889C6.27283 2.95313 6.55996 3.24027 6.91417 3.24027Z" fill="#555555"/>
<path d="M6.91496 3.25598C6.55316 3.25598 6.25879 2.9616 6.25873 2.59978C6.25873 2.5193 6.27329 2.4404 6.30204 2.36532C6.39859 2.11307 6.64488 1.9436 6.9149 1.9436C7.18493 1.9436 7.43122 2.11307 7.52783 2.36532C7.55658 2.44043 7.57114 2.5193 7.57114 2.59978C7.57117 2.9616 7.27679 3.25598 6.91496 3.25598ZM6.91493 1.97324C6.65713 1.97324 6.42196 2.13505 6.32974 2.37591C6.3023 2.44761 6.28839 2.52292 6.28839 2.59978C6.28842 2.94523 6.56951 3.22631 6.91496 3.22631C7.26042 3.22631 7.54151 2.94526 7.54151 2.59978C7.54151 2.52295 7.52759 2.44763 7.50016 2.37591C7.40793 2.13508 7.17277 1.97324 6.91493 1.97324Z" fill="#555555"/>
<path d="M3.48255 8.25099H6.71393C7.06485 8.25099 7.34932 7.96652 7.34932 7.61561C7.34932 7.26469 7.06482 6.98022 6.71393 6.98022H3.48255C3.13164 6.98022 2.84717 7.26469 2.84717 7.61561C2.84717 7.96652 3.13164 8.25099 3.48255 8.25099Z" fill="#555555"/>
<path d="M6.71476 8.26674H3.48338C3.12484 8.26674 2.83316 7.97506 2.83316 7.61652C2.83316 7.25798 3.12484 6.96631 3.48338 6.96631H6.71476C7.0733 6.96631 7.36497 7.25798 7.36497 7.61652C7.36497 7.97506 7.0733 8.26674 6.71476 8.26674ZM3.48338 6.99597C3.14121 6.99597 2.86282 7.27436 2.86282 7.61652C2.86282 7.95868 3.14121 8.23707 3.48338 8.23707H6.71476C7.05695 8.23707 7.33531 7.95868 7.33531 7.61652C7.33531 7.27433 7.05692 6.99597 6.71476 6.99597H3.48338Z" fill="#555555"/>
<path d="M10.3457 10.407H3.48255C3.13164 10.407 2.84717 10.6915 2.84717 11.0424C2.84717 11.3933 3.13164 11.6777 3.48255 11.6777H10.3457C10.6966 11.6777 10.9811 11.3933 10.9811 11.0424C10.9811 10.6915 10.6966 10.407 10.3457 10.407Z" fill="#555555"/>
<path d="M10.3465 11.6935H3.48337C3.12484 11.6935 2.83316 11.4018 2.83316 11.0433C2.83316 10.6847 3.12484 10.3931 3.48337 10.3931H10.3465C10.705 10.3931 10.9967 10.6847 10.9967 11.0433C10.9967 11.4018 10.705 11.6935 10.3465 11.6935ZM3.48337 10.4227C3.14121 10.4227 2.86282 10.7011 2.86282 11.0433C2.86282 11.3854 3.14121 11.6638 3.48337 11.6638H10.3465C10.6887 11.6638 10.9671 11.3854 10.9671 11.0433C10.9671 10.7011 10.6887 10.4227 10.3465 10.4227H3.48337Z" fill="#555555"/>
<path d="M8.38189 13.8474H3.48255C3.13164 13.8474 2.84717 14.1319 2.84717 14.4828C2.84717 14.8337 3.13164 15.1181 3.48255 15.1181H8.38189C8.7328 15.1181 9.01727 14.8337 9.01727 14.4828C9.01727 14.1319 8.7328 13.8474 8.38189 13.8474Z" fill="#555555"/>
<path d="M8.38271 15.1339H3.48337C3.12484 15.1339 2.83316 14.8422 2.83316 14.4837C2.83316 14.1252 3.12484 13.8335 3.48337 13.8335H8.38271C8.74125 13.8335 9.03293 14.1252 9.03293 14.4837C9.03293 14.8422 8.74125 15.1339 8.38271 15.1339ZM3.48337 13.8632C3.14121 13.8632 2.86282 14.1415 2.86282 14.4837C2.86282 14.8258 3.14121 15.1042 3.48337 15.1042H8.38271C8.72488 15.1042 9.00326 14.8258 9.00326 14.4837C9.00326 14.1415 8.72488 13.8632 8.38271 13.8632H3.48337Z" fill="#555555"/>
</svg>
