<svg width="30" height="30" viewBox="0 0 30 30" fill="none" xmlns="http://www.w3.org/2000/svg">
<rect width="3.18116" height="8.63591" transform="matrix(0.718583 0.695441 -0.692409 0.721505 21.0053 8.51514)" fill="#555555"/>
<path d="M14.1229 17.9836L14.8682 14.9098L17.1542 17.1221L14.1229 17.9836Z" fill="#555555"/>
<path d="M21.4773 8.02261C22.0856 7.3888 23.0904 7.37024 23.7216 7.98115V7.98115C24.3528 8.59207 24.3715 9.60111 23.7632 10.2349L23.6057 10.3991L21.3198 8.18676L21.4773 8.02261Z" fill="#555555"/>
<path d="M16.4497 8.86646L7.96582 8.86646C7.41354 8.86646 6.96582 9.31417 6.96582 9.86646L6.96582 21.8665C6.96582 22.4187 7.41354 22.8665 7.96582 22.8665L19.9658 22.8665C20.5181 22.8665 20.9658 22.4187 20.9658 21.8665L20.9658 14.7612" stroke="#555555"/>
<path d="M8.46582 10.8665L16.9658 10.8665" stroke="#555555"/>
<path d="M11.9658 8.86646L18.9658 8.86646" stroke="#555555"/>
<path d="M8.46582 12.8665L10.7158 12.8665L15.4658 12.8665" stroke="#555555"/>
<path d="M8.46582 14.8665L13.9658 14.8665" stroke="#555555"/>
<path d="M8.46582 16.8665L13.4658 16.8665" stroke="#555555"/>
<path d="M18.4658 16.8665L19.4658 16.8665" stroke="#555555"/>
<path d="M8.46582 18.8665L13.4658 18.8665" stroke="#555555"/>
<path d="M13.4658 18.8665L19.4658 18.8665" stroke="#555555"/>
<path d="M8.46582 20.8665L19.4658 20.8665" stroke="#555555"/>
</svg>
