<svg width="44" height="44" viewBox="0 0 44 44" fill="none" xmlns="http://www.w3.org/2000/svg">
    <circle cx="22" cy="22" r="21.5" fill="white" stroke="black"/>
    <path d="M40 22C40 12.0589 31.9411 4 22 4C12.0589 4 4 12.0589 4 22C4 31.9411 12.0589 40 22 40C31.9411 40 40 31.9411 40 22Z"
          fill="#45619D"/>
    <path d="M24.8575 8.31982C19.977 8.31982 18.3663 10.5591 18.3663 14.3993V17.4391H15.16V22.0021H18.3663V35.6798H24.2793V22.0021H28.2978L28.8378 17.4391H24.2793V14.7278C24.2793 13.5024 24.5482 12.8806 26.4505 12.8806H28.8378V8.31982H24.8575Z"
          fill="white"/>
</svg>
