<svg width="44" height="44" viewBox="0 0 44 44" fill="none" xmlns="http://www.w3.org/2000/svg">
    <circle cx="22" cy="22" r="21.5" fill="white" stroke="black"/>
    <path fill-rule="evenodd" clip-rule="evenodd"
          d="M36 12.375C36 10.5123 34.4877 9 32.625 9H12.375C10.5123 9 9 10.5123 9 12.375V32.625C9 34.4877 10.5123 36 12.375 36H32.625C34.4877 36 36 34.4877 36 32.625V12.375Z"
          fill="#2867B2"/>
    <path d="M16.7422 18.4197H12.2197V32.0231H16.7422V18.4197Z" fill="white"/>
    <path d="M14.5114 11.8608C12.9641 11.8608 11.9531 12.8781 11.9531 14.2114C11.9531 15.5166 12.9334 16.562 14.4515 16.562H14.4807C16.0577 16.562 17.0392 15.5166 17.0392 14.2114C17.0099 12.8781 16.0578 11.8608 14.5114 11.8608V11.8608Z"
          fill="white"/>
    <path d="M27.8409 18.1033C25.442 18.1033 24.3675 19.4225 23.7658 20.3492V18.4232H19.2445C19.3044 19.6992 19.2445 32.0266 19.2445 32.0266H23.7658V24.4294C23.7658 24.0228 23.795 23.6163 23.9148 23.3257C24.2412 22.5136 24.9856 21.6723 26.2348 21.6723C27.8702 21.6723 28.5254 22.9202 28.5254 24.7482V32.0266H33.0469V24.2256C33.0469 20.0471 30.8159 18.1033 27.8409 18.1033V18.1033Z"
          fill="white"/>
</svg>
