<?xml version="1.0" encoding="UTF-8" standalone="no"?><!DOCTYPE svg PUBLIC "-//W3C//DTD SVG 1.1//EN" "http://www.w3.org/Graphics/SVG/1.1/DTD/svg11.dtd"><svg width="100%" height="100%" viewBox="0 0 900 900" version="1.1" xmlns="http://www.w3.org/2000/svg" xmlns:xlink="http://www.w3.org/1999/xlink" xml:space="preserve" xmlns:serif="http://www.serif.com/" style="fill-rule:evenodd;clip-rule:evenodd;stroke-linejoin:round;stroke-miterlimit:2;"><rect x="0" y="0" width="900" height="900" style="fill:#2e4d4a;"/><g><path d="M142.579,412.858c-8.141,-0 -15.621,-1.391 -22.437,-4.172c-6.817,-2.78 -12.73,-6.726 -17.738,-11.836c-5.009,-5.111 -8.875,-11.164 -11.6,-18.159c-2.725,-6.996 -4.087,-14.675 -4.087,-23.039c0,-8.108 1.437,-15.612 4.311,-22.51c2.873,-6.898 6.889,-12.919 12.046,-18.061c5.158,-5.143 11.197,-9.136 18.12,-11.981c6.922,-2.845 14.464,-4.268 22.625,-4.268c5.291,0 10.471,0.734 15.541,2.203c5.069,1.469 9.746,3.57 14.032,6.304c4.285,2.733 7.949,5.965 10.992,9.694l-14.882,16.526c-2.441,-2.563 -5.011,-4.76 -7.71,-6.59c-2.698,-1.83 -5.552,-3.241 -8.561,-4.233c-3.008,-0.992 -6.187,-1.487 -9.536,-1.487c-4.549,-0 -8.816,0.831 -12.802,2.494c-3.986,1.663 -7.454,4.007 -10.404,7.033c-2.951,3.026 -5.272,6.66 -6.963,10.901c-1.692,4.241 -2.538,8.96 -2.538,14.158c0,5.227 0.83,9.973 2.489,14.238c1.66,4.265 4.011,7.911 7.055,10.937c3.043,3.026 6.694,5.348 10.954,6.967c4.259,1.618 8.987,2.427 14.185,2.427c3.354,0 6.614,-0.474 9.781,-1.422c3.166,-0.949 6.102,-2.267 8.807,-3.955c2.705,-1.689 5.126,-3.643 7.261,-5.862l11.548,18.458c-2.547,2.886 -5.973,5.488 -10.279,7.806c-4.305,2.318 -9.084,4.136 -14.338,5.453c-5.254,1.317 -10.544,1.976 -15.872,1.976Z" style="fill:#fff;fill-rule:nonzero;"/><path d="M237.033,412.858c-8.522,-0 -16.124,-1.881 -22.807,-5.642c-6.682,-3.761 -11.95,-8.903 -15.801,-15.424c-3.852,-6.521 -5.778,-13.984 -5.778,-22.389c0,-8.407 1.926,-15.871 5.778,-22.392c3.851,-6.521 9.119,-11.662 15.801,-15.424c6.683,-3.761 14.285,-5.641 22.807,-5.641c8.459,-0 16.02,1.88 22.682,5.641c6.662,3.762 11.908,8.903 15.74,15.424c3.831,6.521 5.746,13.985 5.746,22.392c0,8.405 -1.915,15.868 -5.746,22.389c-3.832,6.521 -9.078,11.663 -15.74,15.424c-6.662,3.761 -14.223,5.642 -22.682,5.642Zm-0,-19.53c4.134,0 7.833,-1.043 11.096,-3.13c3.263,-2.087 5.816,-4.936 7.66,-8.547c1.844,-3.612 2.734,-7.694 2.67,-12.248c0.064,-4.661 -0.826,-8.797 -2.67,-12.409c-1.844,-3.611 -4.397,-6.444 -7.66,-8.499c-3.263,-2.054 -6.962,-3.082 -11.096,-3.082c-4.174,0 -7.908,1.044 -11.203,3.131c-3.296,2.086 -5.875,4.935 -7.74,8.547c-1.865,3.611 -2.765,7.715 -2.701,12.312c-0.064,4.554 0.836,8.636 2.701,12.248c1.865,3.611 4.444,6.46 7.74,8.547c3.295,2.087 7.029,3.13 11.203,3.13Z" style="fill:#fff;fill-rule:nonzero;"/><path d="M324.174,412.919c-6.106,0 -11.356,-1.349 -15.749,-4.047c-4.394,-2.699 -7.765,-6.555 -10.116,-11.569c-2.35,-5.014 -3.525,-11.028 -3.525,-18.042l-0,-51.577l22.426,0l0,47.829c0,3.864 0.621,7.182 1.862,9.953c1.242,2.772 3.035,4.901 5.379,6.388c2.344,1.486 5.182,2.23 8.513,2.23c2.481,-0 4.75,-0.398 6.808,-1.194c2.058,-0.796 3.835,-1.926 5.331,-3.39c1.496,-1.463 2.668,-3.203 3.517,-5.219c0.848,-2.016 1.273,-4.192 1.273,-6.529l-0,-50.068l22.426,0l-0,83.593l-21.382,0l-0.738,-17.262l4.075,-1.897c-1.224,3.94 -3.316,7.48 -6.278,10.62c-2.962,3.141 -6.497,5.623 -10.607,7.446c-4.109,1.824 -8.514,2.735 -13.215,2.735Z" style="fill:#fff;fill-rule:nonzero;"/><rect x="391.214" y="294.318" width="22.429" height="116.959" style="fill:#fff;fill-rule:nonzero;"/><path d="M461.821,412.919c-7.341,0 -13.886,-1.87 -19.634,-5.611c-5.748,-3.74 -10.29,-8.871 -13.623,-15.392c-3.334,-6.522 -5.001,-14.006 -5.001,-22.454c-0,-8.405 1.661,-15.878 4.983,-22.42c3.323,-6.542 7.862,-11.693 13.619,-15.455c5.756,-3.761 12.314,-5.641 19.674,-5.641c3.903,-0 7.665,0.597 11.286,1.791c3.62,1.195 6.876,2.843 9.768,4.944c2.892,2.102 5.228,4.455 7.007,7.06c1.78,2.604 2.793,5.297 3.038,8.078l-5.663,1.054l0,-54.555l22.488,-0l0,116.959l-21.196,0l-0.983,-19.327l4.45,0.553c-0.204,2.611 -1.17,5.124 -2.897,7.539c-1.727,2.414 -3.966,4.593 -6.717,6.537c-2.751,1.943 -5.913,3.486 -9.487,4.628c-3.573,1.141 -7.277,1.712 -11.112,1.712Zm5.1,-18.739c4.215,0 7.901,-1.049 11.06,-3.147c3.159,-2.099 5.613,-4.996 7.363,-8.693c1.75,-3.697 2.625,-7.99 2.625,-12.878c0,-4.886 -0.875,-9.188 -2.625,-12.906c-1.75,-3.717 -4.204,-6.615 -7.363,-8.693c-3.159,-2.078 -6.845,-3.116 -11.06,-3.116c-4.213,-0 -7.889,1.038 -11.027,3.116c-3.138,2.078 -5.582,4.976 -7.332,8.693c-1.75,3.718 -2.625,8.02 -2.625,12.906c0,4.888 0.875,9.181 2.625,12.878c1.75,3.697 4.194,6.594 7.332,8.693c3.138,2.098 6.814,3.147 11.027,3.147Z" style="fill:#fff;fill-rule:nonzero;"/><path d="M573.572,411.277l0,-83.593l21.505,0l0.615,17.07l-4.381,1.897c1.093,-3.812 3.158,-7.272 6.194,-10.38c3.036,-3.108 6.661,-5.606 10.876,-7.494c4.215,-1.888 8.596,-2.831 13.143,-2.831c6.322,-0 11.632,1.269 15.929,3.807c4.297,2.537 7.53,6.345 9.698,11.424c2.168,5.078 3.252,11.381 3.252,18.908l0,51.192l-22.426,0l0,-49.471c0,-3.799 -0.53,-6.956 -1.589,-9.47c-1.06,-2.514 -2.681,-4.37 -4.864,-5.567c-2.183,-1.197 -4.855,-1.731 -8.016,-1.603c-2.547,0 -4.881,0.398 -7.003,1.194c-2.121,0.796 -3.962,1.926 -5.523,3.39c-1.561,1.464 -2.781,3.145 -3.662,5.045c-0.881,1.9 -1.321,3.974 -1.321,6.221l-0,50.261l-22.427,0Z" style="fill:#fff;fill-rule:nonzero;"/><path d="M706.45,412.858c-8.521,-0 -16.123,-1.881 -22.806,-5.642c-6.683,-3.761 -11.95,-8.903 -15.802,-15.424c-3.851,-6.521 -5.777,-13.984 -5.777,-22.389c-0,-8.407 1.926,-15.871 5.777,-22.392c3.852,-6.521 9.119,-11.662 15.802,-15.424c6.683,-3.761 14.285,-5.641 22.806,-5.641c8.46,-0 16.02,1.88 22.682,5.641c6.662,3.762 11.909,8.903 15.74,15.424c3.831,6.521 5.747,13.985 5.747,22.392c-0,8.405 -1.916,15.868 -5.747,22.389c-3.831,6.521 -9.078,11.663 -15.74,15.424c-6.662,3.761 -14.222,5.642 -22.682,5.642Zm0,-19.53c4.134,0 7.833,-1.043 11.096,-3.13c3.263,-2.087 5.817,-4.936 7.661,-8.547c1.844,-3.612 2.734,-7.694 2.669,-12.248c0.065,-4.661 -0.825,-8.797 -2.669,-12.409c-1.844,-3.611 -4.398,-6.444 -7.661,-8.499c-3.263,-2.054 -6.962,-3.082 -11.096,-3.082c-4.173,0 -7.908,1.044 -11.203,3.131c-3.295,2.086 -5.875,4.935 -7.739,8.547c-1.865,3.611 -2.765,7.715 -2.701,12.312c-0.064,4.554 0.836,8.636 2.701,12.248c1.864,3.611 4.444,6.46 7.739,8.547c3.295,2.087 7.03,3.13 11.203,3.13Z" style="fill:#fff;fill-rule:nonzero;"/><path d="M772.815,411.277l0,-104.834l22.427,0l-0,104.834l-22.427,0Zm-15.63,-63.485l0,-20.108l55.25,0l-0,20.108l-55.25,-0Z" style="fill:#fff;fill-rule:nonzero;"/><rect x="26.111" y="452.371" width="22.429" height="116.959" style="fill:#fff;fill-rule:nonzero;"/><path d="M102.846,570.911c-8.522,-0 -16.124,-1.881 -22.807,-5.642c-6.682,-3.761 -11.95,-8.903 -15.801,-15.424c-3.852,-6.521 -5.778,-13.984 -5.778,-22.389c0,-8.407 1.926,-15.87 5.778,-22.392c3.851,-6.521 9.119,-11.662 15.801,-15.424c6.683,-3.761 14.285,-5.641 22.807,-5.641c8.459,-0 16.02,1.88 22.682,5.641c6.662,3.762 11.908,8.903 15.74,15.424c3.831,6.522 5.746,13.985 5.746,22.392c0,8.405 -1.915,15.868 -5.746,22.389c-3.832,6.521 -9.078,11.663 -15.74,15.424c-6.662,3.761 -14.223,5.642 -22.682,5.642Zm-0,-19.53c4.134,0 7.833,-1.043 11.096,-3.13c3.263,-2.087 5.816,-4.936 7.66,-8.547c1.844,-3.612 2.734,-7.694 2.67,-12.248c0.064,-4.661 -0.826,-8.797 -2.67,-12.409c-1.844,-3.611 -4.397,-6.444 -7.66,-8.499c-3.263,-2.054 -6.962,-3.082 -11.096,-3.082c-4.174,0 -7.908,1.044 -11.203,3.131c-3.296,2.086 -5.876,4.935 -7.74,8.547c-1.865,3.611 -2.765,7.715 -2.701,12.312c-0.064,4.554 0.836,8.636 2.701,12.248c1.864,3.611 4.444,6.46 7.74,8.547c3.295,2.087 7.029,3.13 11.203,3.13Z" style="fill:#fff;fill-rule:nonzero;"/><path d="M192.462,570.849c-6.93,-0 -13.183,-1.887 -18.759,-5.659c-5.576,-3.773 -10.009,-8.936 -13.299,-15.489c-3.289,-6.554 -4.934,-14.002 -4.934,-22.344c0,-8.446 1.651,-15.93 4.953,-22.451c3.302,-6.521 7.815,-11.636 13.539,-15.345c5.725,-3.708 12.222,-5.562 19.493,-5.562c4.116,-0 7.883,0.591 11.302,1.774c3.418,1.183 6.42,2.835 9.004,4.957c2.584,2.121 4.755,4.565 6.515,7.33c1.759,2.766 3.013,5.733 3.762,8.901l-4.742,-0.835l0,-20.389l22.278,0l0,83.593l-22.584,0l0,-20.125l5.083,-0.432c-0.796,2.928 -2.147,5.724 -4.056,8.391c-1.908,2.666 -4.271,5.012 -7.09,7.038c-2.818,2.026 -5.953,3.64 -9.404,4.843c-3.451,1.202 -7.138,1.804 -11.061,1.804Zm6.174,-19.317c4.215,-0 7.901,-1.007 11.059,-3.021c3.157,-2.013 5.612,-4.836 7.363,-8.469c1.751,-3.633 2.626,-7.861 2.626,-12.685c0,-4.758 -0.875,-8.947 -2.626,-12.568c-1.751,-3.62 -4.206,-6.437 -7.363,-8.452c-3.158,-2.014 -6.844,-3.021 -11.059,-3.021c-4.151,-0 -7.778,1.007 -10.884,3.021c-3.105,2.015 -5.532,4.832 -7.282,8.452c-1.75,3.621 -2.626,7.81 -2.626,12.568c0,4.824 0.876,9.052 2.626,12.685c1.75,3.633 4.177,6.456 7.282,8.469c3.106,2.014 6.733,3.021 10.884,3.021Z" style="fill:#fff;fill-rule:nonzero;"/><path d="M293.969,570.972c-7.341,0 -13.886,-1.87 -19.634,-5.611c-5.749,-3.74 -10.29,-8.871 -13.624,-15.392c-3.334,-6.522 -5.001,-14.006 -5.001,-22.454c0,-8.405 1.662,-15.878 4.984,-22.42c3.322,-6.542 7.862,-11.693 13.618,-15.455c5.757,-3.761 12.315,-5.641 19.674,-5.641c3.904,-0 7.666,0.597 11.286,1.791c3.621,1.195 6.877,2.843 9.769,4.944c2.892,2.102 5.227,4.455 7.007,7.06c1.78,2.604 2.792,5.297 3.038,8.078l-5.663,1.054l-0,-54.555l22.488,-0l-0,116.959l-21.196,0l-0.983,-19.327l4.45,0.553c-0.204,2.611 -1.17,5.124 -2.897,7.539c-1.727,2.414 -3.966,4.593 -6.717,6.537c-2.751,1.943 -5.914,3.486 -9.487,4.628c-3.574,1.141 -7.278,1.712 -11.112,1.712Zm5.1,-18.739c4.214,0 7.901,-1.049 11.06,-3.147c3.158,-2.099 5.613,-4.996 7.363,-8.693c1.75,-3.697 2.625,-7.99 2.625,-12.878c-0,-4.886 -0.875,-9.188 -2.625,-12.906c-1.75,-3.717 -4.205,-6.615 -7.363,-8.693c-3.159,-2.078 -6.846,-3.116 -11.06,-3.116c-4.213,-0 -7.889,1.038 -11.027,3.116c-3.138,2.078 -5.582,4.976 -7.332,8.693c-1.75,3.718 -2.625,8.02 -2.625,12.906c-0,4.888 0.875,9.181 2.625,12.878c1.75,3.697 4.194,6.594 7.332,8.693c3.138,2.098 6.814,3.147 11.027,3.147Z" style="fill:#fff;fill-rule:nonzero;"/><path d="M407.547,569.33l0,-83.593l22.427,0l-0,83.593l-22.427,0Zm11.099,-100.759c-4.339,0 -7.712,-1.059 -10.121,-3.178c-2.408,-2.119 -3.613,-5.12 -3.613,-9.002c0,-3.587 1.231,-6.514 3.692,-8.779c2.462,-2.266 5.809,-3.398 10.042,-3.398c4.338,-0 7.711,1.059 10.12,3.178c2.409,2.119 3.613,5.119 3.613,8.999c0,3.589 -1.231,6.517 -3.692,8.782c-2.461,2.266 -5.808,3.398 -10.041,3.398Z" style="fill:#fff;fill-rule:nonzero;"/><path d="M449.466,569.33l0,-83.593l21.601,0l0.492,15.981l-3.25,0.667c1.131,-2.74 2.659,-5.22 4.585,-7.441c1.925,-2.221 4.16,-4.132 6.703,-5.733c2.544,-1.601 5.237,-2.838 8.078,-3.711c2.842,-0.872 5.691,-1.309 8.548,-1.309c4.333,0 8.229,0.678 11.688,2.034c3.459,1.356 6.409,3.491 8.851,6.406c2.442,2.915 4.333,6.743 5.673,11.485l-3.453,-0.45l1.168,-2.501c1.324,-2.547 3.044,-4.849 5.161,-6.906c2.116,-2.058 4.491,-3.847 7.125,-5.369c2.635,-1.522 5.386,-2.686 8.254,-3.491c2.868,-0.805 5.663,-1.208 8.384,-1.208c6.505,0 11.919,1.285 16.241,3.855c4.323,2.57 7.573,6.427 9.75,11.569c2.177,5.143 3.266,11.478 3.266,19.007l0,50.708l-22.522,0l-0,-49.085c-0,-3.799 -0.514,-6.923 -1.541,-9.372c-1.028,-2.45 -2.559,-4.29 -4.593,-5.519c-2.034,-1.229 -4.599,-1.843 -7.696,-1.843c-2.417,-0 -4.67,0.398 -6.761,1.194c-2.09,0.796 -3.888,1.925 -5.396,3.388c-1.507,1.463 -2.685,3.144 -3.534,5.044c-0.848,1.9 -1.273,4.006 -1.273,6.317l0,49.876l-22.522,0l-0,-49.278c-0,-3.541 -0.53,-6.537 -1.589,-8.987c-1.06,-2.45 -2.607,-4.321 -4.641,-5.614c-2.034,-1.294 -4.503,-1.94 -7.407,-1.94c-2.417,-0 -4.654,0.398 -6.712,1.194c-2.058,0.796 -3.841,1.909 -5.348,3.34c-1.508,1.431 -2.686,3.096 -3.534,4.996c-0.849,1.9 -1.273,3.973 -1.273,6.221l-0,50.068l-22.523,0Z" style="fill:#fff;fill-rule:nonzero;"/><path d="M626.476,570.849c-6.93,-0 -13.183,-1.887 -18.759,-5.659c-5.577,-3.773 -10.01,-8.936 -13.299,-15.489c-3.289,-6.554 -4.934,-14.002 -4.934,-22.344c-0,-8.446 1.651,-15.93 4.953,-22.451c3.301,-6.521 7.814,-11.636 13.539,-15.345c5.724,-3.708 12.222,-5.562 19.492,-5.562c4.116,-0 7.884,0.591 11.302,1.774c3.419,1.183 6.42,2.835 9.004,4.957c2.584,2.121 4.756,4.565 6.515,7.33c1.759,2.766 3.014,5.733 3.763,8.901l-4.742,-0.835l0,-20.389l22.278,0l0,83.593l-22.584,0l-0,-20.125l5.082,-0.432c-0.795,2.928 -2.147,5.724 -4.055,8.391c-1.908,2.666 -4.271,5.012 -7.09,7.038c-2.819,2.026 -5.953,3.64 -9.404,4.843c-3.451,1.202 -7.138,1.804 -11.061,1.804Zm6.174,-19.317c4.214,-0 7.901,-1.007 11.058,-3.021c3.158,-2.013 5.612,-4.836 7.363,-8.469c1.751,-3.633 2.627,-7.861 2.627,-12.685c-0,-4.758 -0.876,-8.947 -2.627,-12.568c-1.751,-3.62 -4.205,-6.437 -7.363,-8.452c-3.157,-2.014 -6.844,-3.021 -11.058,-3.021c-4.151,-0 -7.779,1.007 -10.884,3.021c-3.105,2.015 -5.533,4.832 -7.283,8.452c-1.75,3.621 -2.625,7.81 -2.625,12.568c0,4.824 0.875,9.052 2.625,12.685c1.75,3.633 4.178,6.456 7.283,8.469c3.105,2.014 6.733,3.021 10.884,3.021Z" style="fill:#fff;fill-rule:nonzero;"/><path d="M733.277,605.682c-6.557,0 -13.067,-0.973 -19.529,-2.919c-6.462,-1.946 -11.71,-4.476 -15.744,-7.591l7.913,-16.087c2.188,1.539 4.643,2.884 7.366,4.035c2.722,1.151 5.592,2.038 8.61,2.661c3.018,0.623 6.075,0.935 9.172,0.935c5.467,-0 9.986,-0.836 13.556,-2.507c3.571,-1.671 6.244,-4.187 8.02,-7.547c1.777,-3.36 2.665,-7.575 2.665,-12.644l0,-14.672l3.83,0.921c-0.65,3.39 -2.414,6.535 -5.291,9.435c-2.877,2.901 -6.455,5.238 -10.734,7.012c-4.279,1.774 -8.725,2.66 -13.338,2.66c-7.738,0 -14.607,-1.798 -20.607,-5.396c-6.001,-3.597 -10.741,-8.554 -14.221,-14.87c-3.481,-6.316 -5.221,-13.616 -5.221,-21.899c-0,-8.407 1.714,-15.85 5.142,-22.33c3.427,-6.48 8.121,-11.58 14.08,-15.3c5.959,-3.72 12.702,-5.58 20.229,-5.58c3.162,-0 6.197,0.364 9.106,1.092c2.909,0.729 5.608,1.743 8.096,3.043c2.489,1.3 4.714,2.772 6.674,4.417c1.961,1.645 3.564,3.415 4.807,5.312c1.244,1.897 2.045,3.791 2.402,5.682l-4.645,1.327l0.676,-19.135l21.503,0l0,77.305c0,6.803 -1.015,12.842 -3.046,18.116c-2.031,5.274 -4.972,9.738 -8.824,13.39c-3.852,3.653 -8.525,6.421 -14.019,8.307c-5.494,1.885 -11.703,2.827 -18.628,2.827Zm0.694,-54.397c4.426,-0 8.302,-1.007 11.63,-3.02c3.327,-2.014 5.892,-4.81 7.695,-8.39c1.803,-3.579 2.704,-7.76 2.704,-12.543c0,-4.782 -0.917,-8.99 -2.752,-12.622c-1.835,-3.632 -4.4,-6.455 -7.696,-8.469c-3.295,-2.014 -7.155,-3.022 -11.581,-3.022c-4.361,0 -8.179,1.024 -11.455,3.07c-3.275,2.047 -5.83,4.886 -7.665,8.518c-1.835,3.632 -2.753,7.807 -2.753,12.525c0,4.719 0.918,8.884 2.753,12.495c1.835,3.612 4.39,6.424 7.665,8.438c3.276,2.013 7.094,3.02 11.455,3.02Z" style="fill:#fff;fill-rule:nonzero;"/><path d="M837.434,570.911c-9.027,-0 -16.925,-1.849 -23.695,-5.546c-6.77,-3.697 -12.036,-8.757 -15.797,-15.182c-3.761,-6.424 -5.642,-13.807 -5.642,-22.149c0,-6.451 1.054,-12.363 3.161,-17.737c2.108,-5.374 5.052,-10.036 8.834,-13.987c3.782,-3.952 8.281,-7.007 13.496,-9.168c5.216,-2.16 10.9,-3.24 17.053,-3.24c5.701,0 10.962,1.048 15.783,3.144c4.821,2.096 8.994,5.007 12.521,8.733c3.526,3.725 6.232,8.13 8.117,13.214c1.885,5.084 2.755,10.626 2.608,16.626l-0.158,6.833l-67.19,-0l-3.635,-13.761l52.333,0l-2.615,2.872l-0,-3.425c-0.195,-2.902 -1.098,-5.488 -2.711,-7.757c-1.612,-2.269 -3.701,-4.049 -6.264,-5.343c-2.563,-1.293 -5.412,-1.94 -8.545,-1.94c-4.664,0 -8.597,0.906 -11.799,2.717c-3.203,1.811 -5.631,4.439 -7.284,7.884c-1.654,3.445 -2.481,7.67 -2.481,12.675c-0,5.017 1.058,9.382 3.175,13.096c2.116,3.715 5.151,6.588 9.105,8.619c3.954,2.032 8.623,3.048 14.009,3.048c3.74,-0 7.13,-0.572 10.168,-1.717c3.039,-1.144 6.305,-3.159 9.801,-6.045l10.737,15.101c-3.062,2.735 -6.431,5.009 -10.106,6.824c-3.676,1.814 -7.46,3.203 -11.353,4.166c-3.893,0.963 -7.768,1.445 -11.626,1.445Z" style="fill:#fff;fill-rule:nonzero;"/></g></svg>