<svg width="23" height="24" viewBox="0 0 23 24" fill="none" xmlns="http://www.w3.org/2000/svg">
<path d="M20.8198 17.7571L13.316 4.75039C13.1284 4.43773 12.847 4.21886 12.503 4.0938C12.1591 3.96873 11.8152 3.96873 11.4712 4.0938C11.1273 4.21886 10.8772 4.43773 10.6896 4.75039L6.93766 11.2537L3.18572 17.7571C2.99812 18.101 2.96686 18.445 3.02939 18.7889C3.09192 19.1328 3.24825 19.4142 3.52965 19.6643C3.77978 19.9145 4.1237 20.0083 4.4989 20.0083H19.5066C19.8818 20.0083 20.1945 19.9145 20.4759 19.6643C20.726 19.4142 20.9136 19.1328 20.9762 18.7889C21.0387 18.445 20.9762 18.101 20.8198 17.7571ZM12.0028 15.0682C12.378 15.0682 12.7219 15.2245 13.0033 15.5059C13.2847 15.7873 13.441 16.1313 13.441 16.5065C13.441 16.9129 13.2847 17.2568 13.0033 17.5382C12.7219 17.8196 12.378 17.9447 12.0028 17.9447C11.5963 17.9447 11.2524 17.8196 10.971 17.5382C10.6896 17.2568 10.5645 16.9129 10.5645 16.5065C10.5645 16.1313 10.6896 15.7873 10.971 15.5059C11.2524 15.2245 11.5963 15.0682 12.0028 15.0682ZM10.6271 9.9093C10.6271 9.78424 10.6583 9.69044 10.7209 9.62791C10.7834 9.56537 10.8772 9.50284 11.0023 9.50284H13.0033C13.0971 9.50284 13.1909 9.56537 13.2534 9.62791C13.316 9.69044 13.3785 9.78424 13.3785 9.9093L13.1284 14.1615C13.1284 14.2553 13.0658 14.3491 13.0033 14.4116C12.9408 14.4742 12.847 14.5054 12.7532 14.5054H11.2524C11.1273 14.5054 11.0335 14.4742 10.971 14.4116C10.9085 14.3491 10.8772 14.2553 10.8772 14.1615L10.6271 9.9093Z" fill="#555555"/>
</svg>
