<svg width="44" height="44" viewBox="0 0 44 44" fill="none" xmlns="http://www.w3.org/2000/svg">
    <circle cx="22" cy="22" r="21.5" fill="white" stroke="black"/>
    <path d="M22 40C31.9411 40 40 31.9411 40 22C40 12.0589 31.9411 4 22 4C12.0589 4 4 12.0589 4 22C4 31.9411 12.0589 40 22 40Z"
          fill="#1CB7EB"/>
    <path d="M31.6 15.5501C30.925 15.9251 30.1 16.1501 29.35 16.2251C30.175 15.7001 30.775 14.8751 31.075 13.9001C30.325 14.3501 29.5 14.7251 28.525 14.9501C27.775 14.1251 26.8 13.6001 25.675 13.6001C23.5 13.6001 21.7 15.4751 21.7 17.8751C21.7 18.1751 21.7 18.5501 21.775 18.8501C18.475 18.7001 15.55 16.9751 13.6 14.4251C13.225 15.0251 13.075 15.7751 13.075 16.6001C13.075 18.1001 13.75 19.3751 14.8 20.1251C14.125 20.1251 13.525 19.9001 13 19.6001V19.6751C13 21.7001 14.35 23.4251 16.15 23.8751C15.85 23.9501 15.475 24.0251 15.1 24.0251C14.875 24.0251 14.575 24.0251 14.35 23.9501C14.875 25.6751 16.3 26.8751 18.025 26.8751C16.675 28.0001 14.95 28.6751 13.15 28.6751C12.85 28.6751 12.55 28.6751 12.175 28.6001C13.9 29.8001 16 30.5501 18.25 30.5501C25.525 30.5501 29.5 24.1001 29.5 18.4751C29.5 18.3251 29.5 18.1001 29.5 17.9501C30.4 17.2001 31.075 16.4501 31.6 15.5501Z"
          fill="white"/>
</svg>
